<?xml version="1.0" encoding="UTF-8" standalone="no"?>
<svg xmlns:dc="http://purl.org/dc/elements/1.1/" xmlns:cc="http://creativecommons.org/ns#" xmlns:rdf="http://www.w3.org/1999/02/22-rdf-syntax-ns#" xmlns:svg="http://www.w3.org/2000/svg" xmlns="http://www.w3.org/2000/svg" version="1.1" viewBox="0 0 1024.0001 289.35079" height="81.661224mm" width="288.99557mm">
	<title>Groove Music</title>
	<g transform="translate(205.56529,-378.7717)">
		<path d="m -60.889901,378.7717 c -79.774299,0 -144.675389,64.90107 -144.675389,144.6754 0,79.77432 64.90109,144.67539 144.675389,144.67539 79.77431,0 144.6754,-64.90107 144.6754,-144.67539 0,-33.81659 -11.85184,-66.55788 -33.41952,-92.4841 l -46.9370302,33.89306 12.2192102,17.25962 29.79959,-21.52113 c 11.17508,18.91064 17.18325,40.60812 17.18325,62.85255 0,68.11278 -55.4081002,123.5362 -123.5209,123.5362 -68.112789,0 -123.536159,-55.42342 -123.536159,-123.5362 0,-68.11279 55.42337,-123.52088 123.536159,-123.52088 24.08918,0 47.71113,7.09104 64.6395998,19.04671 L 22.857489,405.4554 c -25.2340802,-18.26469 -55.53712,-26.6837 -83.74739,-26.6837 z m 317.836821,68.85524 c -22.82191,0 -41.06035,7.63441 -54.71149,22.89571 -13.65115,15.26137 -20.46717,34.30292 -20.46717,57.1248 0,22.61191 6.3298,40.88722 19.00086,54.81845 12.67107,13.93107 29.26627,20.8948 49.77799,20.8948 16.45138,0 32.44963,-4.38492 47.99093,-13.13559 l 0,-64.36467 -45.89839,0 0,9.45457 35.49679,0 0,49.67105 c -10.22085,5.88055 -22.11421,8.81316 -35.69535,8.81316 -18.34154,0 -32.93967,-5.97603 -43.79058,-17.94694 -10.78091,-12.04106 -16.17517,-28.63627 -16.17517,-49.77804 0,-20.09165 5.74811,-36.61304 17.22908,-49.56414 11.55096,-12.95111 26.8046,-19.4285 45.77619,-19.4285 13.0211,0 26.35148,3.2864 40.00263,9.86694 l 0,-11.33325 c -12.46105,-5.32053 -25.30522,-7.98835 -38.53632,-7.98835 z m -317.836821,22.6514 c -29.31671,0 -53.168809,23.85111 -53.168809,53.16876 0,29.31764 23.851139,53.16883 53.168809,53.16883 29.31768,0 53.1688198,-23.85119 53.1688198,-53.16883 0,-29.31671 -23.8520998,-53.16876 -53.1688198,-53.16876 z m 503.186891,20.29913 c -15.6113,0 -28.21236,5.04041 -37.80316,15.12124 -9.52079,10.0809 -14.2812,24.04513 -14.2812,41.89659 0,16.52138 4.53893,29.9625 13.63969,40.32337 9.17076,10.29088 21.60253,15.44203 37.28385,15.44203 15.75132,0 28.14618,-5.18806 37.17693,-15.54893 9.10077,-10.36079 13.65497,-23.8974 13.65497,-40.62884 0,-17.71147 -4.45874,-31.58029 -13.34949,-41.59112 -8.89074,-10.01084 -20.9903,-15.01434 -36.32159,-15.01434 z m 120.54244,0 c -15.61126,0 -28.21233,5.04041 -37.80314,15.12124 -9.5208,10.0809 -14.28119,24.04513 -14.28119,41.89659 0,16.52138 4.5542,29.9625 13.65495,40.32337 9.17077,10.29088 21.60254,15.44203 37.28386,15.44203 15.75132,0 28.13092,-5.18806 37.16164,-15.54893 9.10078,-10.36079 13.65501,-23.8974 13.65501,-40.62884 0,-17.71147 -4.44349,-31.58029 -13.33422,-41.59112 -8.89082,-10.01084 -21.00562,-15.01434 -36.33691,-15.01434 z m 214.11106,0 c -14.28118,0 -25.89455,5.39428 -34.85528,16.17518 -8.89073,10.71083 -13.33422,23.90882 -13.33422,39.59023 0,18.1315 4.25893,32.16955 12.79963,42.11039 8.54077,9.94084 19.74162,14.90743 33.60278,14.90743 13.72113,0 26.15293,-3.95722 37.28383,-11.86784 l 0,-10.29471 c -11.4809,8.89081 -23.2419,13.33422 -35.28293,13.33422 -11.901,0 -21.27409,-4.16344 -28.13468,-12.49416 -6.79059,-8.33073 -10.1878,-19.88552 -10.1878,-34.65672 l 79.59291,0 0,-4.29201 c 0,-16.24134 -3.5665,-29.06388 -10.7071,-38.44463 -7.1406,-9.38076 -17.406,-14.06738 -30.77714,-14.06738 z m -405.754,0.51927 c -7.00059,0 -13.1611,2.27711 -18.48155,6.8275 -5.32044,4.5504 -9.20386,10.93238 -11.65406,19.12304 l -0.41241,0 0,-23.84266 -9.4546,0 0,107.52901 9.4546,0 0,-50.51119 c 0,-16.10135 2.85879,-28.53311 8.59928,-37.28386 5.74047,-8.75075 12.8518,-13.12034 21.32251,-13.12034 4.34037,0 8.12831,1.15701 11.34858,3.46721 l 0,-10.29471 c -3.15026,-1.26009 -6.73202,-1.894 -10.72235,-1.894 z m 252.75429,2.10788 41.59113,107.52901 8.81308,0 42.75197,-107.52901 -10.50852,0 -33.08351,86.00788 c -1.1201,2.80029 -2.12946,6.40365 -3.03951,10.81406 l -0.41244,0 c -0.63008,-3.36031 -1.72852,-7.11139 -3.26865,-11.24167 l -32.01432,-85.58027 -10.82923,0 z m -182.08146,6.20118 c 12.74107,0 22.5788,4.0897 29.50938,12.28036 7.00059,8.19066 10.50852,19.95167 10.50852,35.28296 0,14.91127 -3.50793,26.56147 -10.50852,34.96218 -7.00058,8.40072 -16.97069,12.60107 -29.92178,12.60107 -12.74107,0 -22.785,-4.27418 -30.13561,-12.81487 -7.35062,-8.54078 -11.02783,-19.83711 -11.02783,-33.90832 0,-15.19131 3.73576,-27.06306 11.22639,-35.60375 7.56063,-8.5407 17.67839,-12.79963 30.34945,-12.79963 z m 120.55774,0 c 12.74106,0 22.57883,4.0897 29.50941,12.28036 7.00056,8.19066 10.49318,19.95167 10.49318,35.28296 0,14.91127 -3.49262,26.56147 -10.49318,34.96218 -7.00057,8.40072 -16.98599,12.60107 -29.9371,12.60107 -12.74105,0 -22.78496,-4.27418 -30.13557,-12.81487 -7.35065,-8.54078 -11.02786,-19.83711 -11.02786,-33.90832 0,-15.19131 3.75106,-27.06306 11.24167,-35.60375 7.56066,-8.5407 17.67839,-12.79963 30.34945,-12.79963 z m 214.11106,0 c 9.73079,0 17.36531,3.41887 22.89571,10.27946 5.5303,6.86051 8.4998,16.49206 8.92,28.88315 l -69.09957,0 c 1.54013,-12.60107 5.60809,-22.26953 12.18863,-28.99005 6.65061,-6.7906 15.01441,-10.17256 25.09523,-10.17256 z m -837.428021,5.68199 c 10.12824,0 18.35937,8.23109 18.35937,18.35931 0,10.12727 -8.23113,18.37463 -18.35937,18.37463 -10.12824,0 -18.37462,-8.24736 -18.37462,-18.37463 0,-10.12822 8.24638,-18.35931 18.37462,-18.35931 z" style="fill:#0076DB;"/>
	</g>
</svg>
