<?xml version="1.0" encoding="utf-8"?>
<!-- Generator: Adobe Illustrator 23.0.1, SVG Export Plug-In . SVG Version: 6.00 Build 0)  -->
<!DOCTYPE svg PUBLIC "-//W3C//DTD SVG 1.1//EN" "http://www.w3.org/Graphics/SVG/1.1/DTD/svg11.dtd" [
	<!ENTITY ns_extend "http://ns.adobe.com/Extensibility/1.0/">
	<!ENTITY ns_ai "http://ns.adobe.com/AdobeIllustrator/10.0/">
	<!ENTITY ns_graphs "http://ns.adobe.com/Graphs/1.0/">
	<!ENTITY ns_vars "http://ns.adobe.com/Variables/1.0/">
	<!ENTITY ns_imrep "http://ns.adobe.com/ImageReplacement/1.0/">
	<!ENTITY ns_sfw "http://ns.adobe.com/SaveForWeb/1.0/">
	<!ENTITY ns_custom "http://ns.adobe.com/GenericCustomNamespace/1.0/">
	<!ENTITY ns_adobe_xpath "http://ns.adobe.com/XPath/1.0/">
]>
<svg version="1.1"
	 id="svg2" xmlns:x="&ns_extend;" xmlns:i="&ns_ai;" xmlns:graph="&ns_graphs;" xmlns:cc="http://creativecommons.org/ns#" xmlns:dc="http://purl.org/dc/elements/1.1/" xmlns:inkscape="http://www.inkscape.org/namespaces/inkscape" xmlns:osb="http://www.openswatchbook.org/uri/2009/osb" xmlns:rdf="http://www.w3.org/1999/02/22-rdf-syntax-ns#" xmlns:sodipodi="http://sodipodi.sourceforge.net/DTD/sodipodi-0.dtd" xmlns:svg="http://www.w3.org/2000/svg"
	 xmlns="http://www.w3.org/2000/svg" xmlns:xlink="http://www.w3.org/1999/xlink" x="0px" y="0px" viewBox="0 0 774 658.1"
	 style="enable-background:new 0 0 774 658.1;" xml:space="preserve">
<style type="text/css">
	.st0{fill:url(#rect3141_1_);}
	.st1{fill:url(#SVGID_1_);}
	.st2{fill:url(#SVGID_2_);}
	.st3{fill:url(#path3197_1_);}
	.st4{fill:url(#path3030_1_);}
</style>
<metadata  id="metadata7">
	<rdf:RDF>
		<cc:Work  rdf:about="">
			<dc:format>image/svg+xml</dc:format>
			<dc:type  rdf:resource="http://purl.org/dc/dcmitype/StillImage"></dc:type>
			<dc:title></dc:title>
		</cc:Work>
	</rdf:RDF>
	<sfw  xmlns="&ns_sfw;">
		<slices></slices>
		<sliceSourceBounds  bottomLeftOrigin="true" height="658.1" width="774" x="70.6" y="11.1"></sliceSourceBounds>
	</sfw>
</metadata>
<g>
	
		<linearGradient id="rect3141_1_" gradientUnits="userSpaceOnUse" x1="354.0634" y1="293.7477" x2="354.0634" y2="-296.3398" gradientTransform="matrix(1 0 0 -1 -12 301.0107)">
		<stop  offset="0" style="stop-color:#37F07B"/>
		<stop  offset="1" style="stop-color:#15BD2E"/>
	</linearGradient>
	<path id="rect3141" class="st0" d="M88.4,0h507.3c48.8,0,88.4,39.6,88.4,88.4v430.4c0,48.8-39.6,88.4-88.4,88.4H88.4
		C39.6,607.2,0,567.6,0,518.8V88.4C0,39.6,39.6,0,88.4,0z"/>
	<g>
		<linearGradient id="SVGID_1_" gradientUnits="userSpaceOnUse" x1="271.9019" y1="152.4466" x2="271.9019" y2="454.8818">
			<stop  offset="0" style="stop-color:#F8F8F8"/>
			<stop  offset="1" style="stop-color:#DEE3DC"/>
		</linearGradient>
		<path class="st1" d="M103.5,219.2v169c0,36.9,30,66.7,66.7,66.7h203.3c36.9,0,66.7-30,66.7-66.7v-169c0-36.9-30-66.7-66.7-66.7
			H170.4C133.5,152.3,103.5,182.3,103.5,219.2z"/>
		<linearGradient id="SVGID_2_" gradientUnits="userSpaceOnUse" x1="520.3845" y1="167.7661" x2="520.3845" y2="440.5847">
			<stop  offset="0" style="stop-color:#F8F8F8"/>
			<stop  offset="1" style="stop-color:#DEE3DC"/>
		</linearGradient>
		<path class="st2" d="M542.2,174l-76.6,63.1c-6.8,5.7-10.8,14-10.8,22.8v87.4c0,8.8,3.8,17,10.5,22.7l76.6,64.3
			c17.5,14.6,43.9,2.2,43.9-20.5V194.5C586,172,559.6,159.5,542.2,174z"/>
	</g>
	
		<linearGradient id="path3197_1_" gradientUnits="userSpaceOnUse" x1="304.4952" y1="246.4131" x2="306.7314" y2="-91.2585" gradientTransform="matrix(1.1071 0 0 -1.1071 243.7431 549.6552)">
		<stop  offset="0" style="stop-color:#FFFFFF"/>
		<stop  offset="1" style="stop-color:#DEE5DE"/>
	</linearGradient>
	
		<path id="path3197" sodipodi:cx="545.71429" sodipodi:cy="639.50507" sodipodi:rx="200" sodipodi:ry="200" sodipodi:type="arc" class="st3" d="
		M774,466.2c0,106-85.9,191.9-191.9,191.9s-191.9-85.9-191.9-191.9s85.9-191.9,191.9-191.9S774,360.2,774,466.2z"/>
	<linearGradient id="path3030_1_" gradientUnits="userSpaceOnUse" x1="471.161" y1="374.9691" x2="671.59" y2="575.3981">
		<stop  offset="0" style="stop-color:#37F07B"/>
		<stop  offset="1" style="stop-color:#15BD2E"/>
	</linearGradient>
	
		<path id="path3030" inkscape:connector-curvature="0" inkscape:original-d="m 618.73436,682.96881 c 0,0 0.5176,0.77639 1.43551,2.15125 0.91792,1.37482 2.23615,3.34814 3.83745,5.742 1.60129,2.39385 3.48564,5.20825 5.53578,8.26528 2.05015,3.05704 4.26609,6.35667 6.53055,9.72098 2.26445,3.36435 4.57744,6.79338 6.82168,10.10922 2.24424,3.31581 4.41974,6.5184 6.40923,9.42984 1.98949,2.91143 3.79297,5.53176 5.29317,7.68298 1.50021,2.15126 2.69713,3.83343 3.47353,4.8686 0.77638,1.03517 1.14839,2.13503 1.20501,3.2673 0.0566,1.13221 -0.20216,2.2968 -0.68743,3.46136 -0.48524,1.16458 -1.19693,2.32918 -2.0461,3.4614 -0.84917,1.13221 -1.83583,2.23209 -2.87101,3.2673 -1.03518,1.03516 -2.11888,2.00565 -3.16216,2.87906 -1.04327,0.87344 -2.0461,1.64984 -2.91953,2.2968 -0.87343,0.64702 -1.61747,1.1646 -2.14315,1.52046 -0.52568,0.35578 -0.833,0.54992 -0.833,0.54992 0,0 -0.14559,0.19409 -0.38618,0.55399 -0.24058,0.35971 -0.57623,0.88554 -0.95633,1.54872 -0.3801,0.66318 -0.80469,1.4638 -1.22321,2.37365 -0.41852,0.90981 -0.83098,1.92881 -1.18682,3.02869 -0.35586,1.09988 -0.65507,2.28064 -0.84716,3.51398 -0.19207,1.23329 -0.27698,2.51921 -0.20421,3.82935 0.0728,1.31015 0.30329,2.64457 0.74201,3.97491 0.43874,1.33039 1.08573,2.6567 1.99151,3.95068 0.90578,1.29398 2.62031,3.39669 4.92723,6.08572 2.30691,2.68904 5.20623,5.96445 8.48161,9.60374 3.27539,3.63932 6.92682,7.64254 10.73799,11.78732 3.81117,4.14477 7.78205,8.43107 11.69633,12.63649 3.91428,4.20542 7.77195,8.32997 11.35667,12.15124 3.58471,3.82127 6.89648,7.33933 9.71897,10.33166 2.82248,2.99232 5.15568,5.45893 6.78326,7.17749 1.62758,1.71857 2.54953,2.68909 2.54953,2.68909 0,0 0.24262,0.21023 0.68137,0.56408 0.43873,0.35404 1.07359,0.85117 1.85807,1.42538 0.78447,0.57422 1.71856,1.22526 2.75576,1.88642 1.03721,0.6611 2.17752,1.33232 3.37446,1.94701 1.19692,0.61464 2.45046,1.17262 3.71411,1.60729 1.26365,0.43469 2.53741,0.74615 3.77477,0.86747 1.23736,0.12132 2.43834,0.0526 3.55641,-0.27301 1.11808,-0.32552 2.15326,-0.90774 3.05905,-1.81359 0.90577,-0.90572 1.90862,-1.86007 2.99839,-2.82848 1.08977,-0.96854 2.26648,-1.95109 3.52003,-2.91352 1.25353,-0.96243 2.5839,-1.90456 3.98099,-2.79213 1.3971,-0.88758 2.8609,-1.7206 4.38133,-2.46464 1.52042,-0.74404 3.09745,-1.39915 4.72098,-1.93085 1.62355,-0.53175 3.29357,-0.94015 5,-1.19088 1.70644,-0.25059 3.44927,-0.34353 5.21837,-0.24448 1.7691,0.099 3.5645,0.39039 5.37607,0.90774 l 52.58412,38.71888 c 6.6965,11.96082 4.67314,16.37621 1.24546,23.39203 -6.0929,12.47107 -21.35769,18.18928 -34.16098,23.80923 -0.64698,0.25888 -1.61747,0.40439 -2.85281,0.44881 -1.23535,0.0447 -2.73554,-0.0131 -4.44198,-0.15773 -1.70643,-0.14551 -3.61909,-0.38033 -5.67934,-0.69152 -2.06025,-0.31146 -4.26811,-0.69949 -6.56491,-1.15237 -2.29681,-0.45296 -4.68258,-0.97052 -7.09868,-1.54066 -2.41609,-0.57014 -4.86252,-1.19292 -7.28064,-1.85605 -2.41811,-0.66314 -4.80793,-1.36676 -7.1108,-2.0987 -2.30287,-0.73188 -4.51881,-1.49209 -6.58917,-2.26846 -2.07037,-0.77644 -4.44805,-1.86013 -7.06633,-3.20664 -2.61828,-1.34657 -5.47716,-2.95591 -8.50992,-4.78371 -3.03276,-1.82773 -6.23939,-3.87378 -9.55319,-6.0938 -3.31379,-2.21996 -6.73474,-4.61382 -10.19613,-7.13708 -3.46138,-2.52327 -6.9632,-5.17594 -10.43874,-7.91345 -3.47554,-2.73758 -6.9248,-5.56007 -10.28105,-8.42299 -3.35625,-2.86292 -6.61949,-5.76631 -9.72302,-8.66561 -3.10352,-2.89939 -6.04732,-5.79457 -8.76467,-8.64138 -2.71735,-2.84675 -5.4994,-5.74206 -8.28752,-8.62923 -2.78811,-2.88717 -5.5823,-5.76625 -8.32391,-8.58067 -2.74162,-2.8144 -5.43066,-5.56409 -8.0085,-8.19243 -2.57785,-2.62842 -5.04449,-5.13555 -7.3413,-7.46474 -2.2968,-2.32911 -4.42378,-4.4804 -6.32228,-6.39705 -1.8985,-1.91671 -3.56854,-3.5989 -4.95147,-4.98992 -1.38295,-1.39104 -2.47878,-2.49091 -3.22888,-3.24303 -0.7501,-0.75212 -1.15447,-1.15649 -1.15447,-1.15649 0,0 -0.50141,-0.53375 -1.39103,-1.51029 -0.88961,-0.97659 -2.16741,-2.39592 -3.72017,-4.16704 -1.55277,-1.77111 -3.38052,-3.89407 -5.37001,-6.2778 -1.98949,-2.38374 -4.14072,-5.0283 -6.34049,-7.8427 -2.19975,-2.81438 -4.44804,-5.79864 -6.63163,-8.86172 -2.18358,-3.06308 -4.30246,-6.20504 -6.24343,-9.33484 -1.94096,-3.12977 -3.70401,-6.24745 -5.17591,-9.26203 -1.4719,-3.01458 -2.65265,-5.92602 -3.42903,-8.64336 -0.77639,-2.71734 -1.56895,-5.43468 -2.34736,-8.14799 -0.77841,-2.71331 -1.54266,-5.42259 -2.26243,-8.12376 -0.71978,-2.70117 -1.39507,-5.39428 -1.99556,-8.07521 -0.60049,-2.68097 -1.12616,-5.34981 -1.54671,-8.00244 -0.42053,-2.65267 -0.73594,-5.28912 -0.91589,-7.90538 -0.17995,-2.61626 -0.22441,-5.21233 -0.10309,-7.78412 0.12132,-2.57174 0.4084,-5.11925 0.89163,-7.63847 0.48322,-2.51921 1.16255,-5.01011 2.06833,-7.46868 0.90579,-2.45858 2.31299,-4.62596 4.0821,-6.53663 1.76911,-1.91062 3.90013,-3.56449 6.25354,-4.99591 2.35342,-1.43147 4.92924,-2.64054 7.58796,-3.66155 2.65871,-1.02105 5.40034,-1.85406 8.08533,-2.53336 2.685,-0.67935 5.31339,-1.20503 7.74566,-1.61142 2.43228,-0.4066 4.66842,-0.6935 6.56896,-0.89566 1.90052,-0.20242 3.46543,-0.31941 4.5552,-0.386 1.08976,-0.0666 1.70441,-0.0829 1.70441,-0.0829 z" inkscape:path-effect="#path-effect3032" sodipodi:nodetypes="cssssssssssssssscssssssssssssssscsssssssssssssssccacssssssssssssssssssssssscssssssssssssssssssssssscc" class="st4" d="
		M514.4,356.3c0.4,0.6,0.8,1.2,1.2,1.9c1.1,1.7,2.2,3.3,3.3,5c1.6,2.4,3.2,4.8,4.8,7.2c1.9,2.8,3.8,5.6,5.7,8.4
		c2,2.9,3.9,5.8,5.9,8.8c1.9,2.7,3.7,5.4,5.6,8.2c1.5,2.2,3,4.5,4.6,6.7c1,1.4,2.1,2.7,3,4.2c0.5,0.9,1,1.8,1,2.8
		c0.1,1-0.2,2.1-0.6,3c-0.5,1.1-1.1,2.1-1.8,3c-0.8,1-1.6,1.9-2.5,2.8c-0.9,0.9-1.8,1.7-2.7,2.5c-0.8,0.7-1.7,1.4-2.5,2
		c-0.6,0.5-1.2,0.9-1.9,1.3c-0.2,0.2-0.5,0.3-0.7,0.5c-0.1,0.2-0.2,0.3-0.3,0.5c-0.3,0.4-0.6,0.9-0.8,1.3c-0.4,0.7-0.7,1.4-1.1,2.1
		c-0.4,0.9-0.7,1.7-1,2.6c-0.3,1-0.6,2-0.7,3c-0.2,1.1-0.2,2.2-0.2,3.3c0.1,1.2,0.3,2.3,0.6,3.4c0.4,1.2,1,2.4,1.7,3.4
		c1.2,1.9,2.8,3.6,4.3,5.3c2.5,2.8,4.9,5.6,7.3,8.3c3.1,3.4,6.2,6.8,9.3,10.2c3.4,3.7,6.7,7.3,10.1,11c3.3,3.5,6.6,7,9.8,10.5
		c2.8,3,5.6,6,8.4,9c2,2.1,3.9,4.1,5.9,6.2c0.7,0.8,1.5,1.6,2.2,2.3c0.2,0.2,0.4,0.3,0.6,0.5c0.5,0.4,1.1,0.8,1.6,1.2
		c0.8,0.6,1.6,1.1,2.4,1.6c0.9,0.6,1.9,1.2,2.9,1.7c1,0.5,2.1,1,3.2,1.4c1.1,0.4,2.2,0.6,3.3,0.8c1,0.1,2.1,0.1,3.1-0.2
		c1-0.3,1.9-0.9,2.7-1.6c0.9-0.8,1.7-1.6,2.6-2.5c1-0.9,2-1.7,3.1-2.5c1.1-0.8,2.3-1.7,3.4-2.4c1.2-0.8,2.5-1.5,3.8-2.1
		c1.3-0.6,2.7-1.2,4.1-1.7c1.4-0.5,2.9-0.8,4.3-1c1.5-0.2,3-0.3,4.5-0.2c1.6,0.1,3.1,0.4,4.7,0.8l45.6,33.6
		c3.2,6.2,3.6,13.8,1.1,20.3c-2.3,5.8-6.8,10.7-12.1,14c-5.3,3.4-11.4,5.4-17.5,6.6c-0.8,0.2-1.6,0.3-2.5,0.4
		c-1.3,0.1-2.6,0-3.8-0.1c-1.6-0.2-3.3-0.4-4.9-0.6c-1.9-0.3-3.8-0.6-5.7-1c-2.1-0.4-4.1-0.9-6.2-1.3c-2.1-0.5-4.2-1-6.3-1.6
		c-2.1-0.6-4.1-1.2-6.2-1.8c-1.9-0.6-3.8-1.2-5.7-2c-2.1-0.8-4.1-1.8-6.1-2.8c-2.5-1.3-5-2.7-7.4-4.1c-2.8-1.7-5.6-3.5-8.3-5.3
		c-3-2-5.9-4.1-8.8-6.2c-3.1-2.2-6.1-4.5-9-6.9c-3-2.4-6-4.8-8.9-7.3c-2.9-2.4-5.7-4.9-8.4-7.5c-2.6-2.4-5.1-4.9-7.6-7.5
		c-2.4-2.5-4.8-5-7.2-7.5c-2.4-2.5-4.8-5-7.2-7.4c-2.3-2.4-4.6-4.7-6.9-7.1c-2.1-2.2-4.2-4.3-6.4-6.5c-1.8-1.9-3.6-3.7-5.5-5.5
		c-1.4-1.4-2.9-2.9-4.3-4.3c-0.9-0.9-1.9-1.9-2.8-2.8c-0.3-0.3-0.7-0.7-1-1c-0.4-0.4-0.8-0.9-1.2-1.3c-1.1-1.2-2.2-2.4-3.2-3.6
		c-1.6-1.8-3.1-3.6-4.7-5.4c-1.9-2.2-3.7-4.5-5.5-6.8c-2-2.5-3.9-5.1-5.7-7.7c-1.9-2.6-3.7-5.3-5.4-8.1c-1.6-2.6-3.2-5.3-4.5-8
		c-1.2-2.4-2.1-4.9-3-7.5c-0.8-2.3-1.4-4.7-2-7.1c-0.6-2.3-1.3-4.7-2-7c-0.6-2.3-1.2-4.7-1.7-7c-0.5-2.3-1-4.6-1.3-6.9
		c-0.4-2.3-0.6-4.6-0.8-6.9c-0.2-2.2-0.2-4.5-0.1-6.7c0.1-2.2,0.4-4.4,0.8-6.6c0.4-2.2,0.9-4.4,1.8-6.5c0.9-2.1,2-4,3.5-5.7
		c1.6-1.7,3.4-3.1,5.4-4.3c2.1-1.3,4.3-2.3,6.6-3.2c2.3-0.9,4.6-1.6,7-2.2c2.2-0.6,4.5-1,6.7-1.4c1.9-0.3,3.8-0.6,5.7-0.8
		c1.3-0.1,2.6-0.3,3.9-0.3C513.4,356.3,513.9,356.3,514.4,356.3L514.4,356.3"/>
</g>
</svg>
