<svg xmlns="http://www.w3.org/2000/svg" viewBox="0 0 420.19 420.16"><defs><style>.a{fill:#f36f21;fill-rule:evenodd;}</style></defs><path class="a" d="M391.76,104.54,328.61,90.91l-14-63.06L253.15,47.62,209.54,0,166.15,47.87l-61.6-19.44L90.91,91.53l-63.06,14L47.62,167,0,210.65,47.86,254,28.42,315.6l63.13,13.61,14,63.08L167,372.55l43.61,47.61L254,372.3l61.61,19.44,13.64-63.12,63.05-14-19.79-61.5,47.67-43.61L372.3,166.13ZM210,64.64c-80.3,0-145.62,65.34-145.62,145.59S129.71,355.85,210,355.85,355.6,290.53,355.6,210.23,290.28,64.64,210,64.64m-91.82,54.71c50.68-50.68,133.12-50.68,183.77,0s50.65,133.07,0,183.75-133.08,50.65-183.74,0-50.66-133.08,0-183.72"/></svg>