<?xml version="1.0" encoding="UTF-8" standalone="no"?>
<!-- Created with Inkscape (http://www.inkscape.org/) -->

<svg
   xmlns:dc="http://purl.org/dc/elements/1.1/"
   xmlns:cc="http://creativecommons.org/ns#"
   xmlns:rdf="http://www.w3.org/1999/02/22-rdf-syntax-ns#"
   xmlns:svg="http://www.w3.org/2000/svg"
   xmlns="http://www.w3.org/2000/svg"
   xmlns:sodipodi="http://sodipodi.sourceforge.net/DTD/sodipodi-0.dtd"
   xmlns:inkscape="http://www.inkscape.org/namespaces/inkscape"
   width="133.68652mm"
   height="42.266895mm"
   viewBox="0 0 133.68652 42.266895"
   version="1.1"
   id="svg6424"
   inkscape:version="0.92.5 (2060ec1f9f, 2020-04-08)"
   sodipodi:docname="group.svg">
  <defs
     id="defs6418" />
  <sodipodi:namedview
     id="base"
     pagecolor="#ffffff"
     bordercolor="#666666"
     borderopacity="1.0"
     inkscape:pageopacity="0.0"
     inkscape:pageshadow="2"
     inkscape:zoom="0.35"
     inkscape:cx="133.61777"
     inkscape:cy="-296.61672"
     inkscape:document-units="mm"
     inkscape:current-layer="layer1"
     showgrid="false"
     inkscape:window-width="1280"
     inkscape:window-height="967"
     inkscape:window-x="1024"
     inkscape:window-y="0"
     inkscape:window-maximized="1" />
  <metadata
     id="metadata6421">
    <rdf:RDF>
      <cc:Work
         rdf:about="">
        <dc:format>image/svg+xml</dc:format>
        <dc:type
           rdf:resource="http://purl.org/dc/dcmitype/StillImage" />
        <dc:title></dc:title>
        <cc:license
           rdf:resource="http://creativecommons.org/licenses/by/4.0/" />
        <dc:creator>
          <cc:Agent>
            <dc:title>Steve Grundell</dc:title>
          </cc:Agent>
        </dc:creator>
        <dc:publisher>
          <cc:Agent>
            <dc:title>Raising the Floor</dc:title>
          </cc:Agent>
        </dc:publisher>
      </cc:Work>
      <cc:License
         rdf:about="http://creativecommons.org/licenses/by/4.0/">
        <cc:permits
           rdf:resource="http://creativecommons.org/ns#Reproduction" />
        <cc:permits
           rdf:resource="http://creativecommons.org/ns#Distribution" />
        <cc:requires
           rdf:resource="http://creativecommons.org/ns#Notice" />
        <cc:requires
           rdf:resource="http://creativecommons.org/ns#Attribution" />
        <cc:permits
           rdf:resource="http://creativecommons.org/ns#DerivativeWorks" />
      </cc:License>
    </rdf:RDF>
  </metadata>
  <g
     inkscape:label="Layer 1"
     inkscape:groupmode="layer"
     id="layer1"
     transform="translate(61.811367,-28.0866)">
    <g
       transform="translate(-156.48289,-11.469882)"
       id="g6416">
      <g
         transform="translate(-80.697916,67.46875)"
         id="g6299">
        <path
           inkscape:connector-curvature="0"
           id="path6295"
           d="m 193.15834,-16.188612 c -1.37375,1.719434 -3.48659,2.82412 -5.85443,2.824117 -2.36778,0 -4.48015,-1.104257 -5.8539,-2.823599 -1.40193,0.551077 -2.65393,1.317567 -3.63699,2.300634 -3.10872,3.108701 -3.40415,13.18937621 0,13.18937621 h 9.60458 c 0.6414,-2.16813871 1.60195,-4.09482391 2.90474,-5.39760311 1.52627,-1.5262833 3.44315,-2.7077379 5.56968,-3.5651572 -1.25156,-1.7741289 -2.00655,-3.9210769 -2.06447,-6.2399309 -0.21942,-0.100944 -0.44136,-0.198286 -0.66921,-0.287837 z m 2.03605,1.028361 c 0.28651,2.826769 1.74449,5.301279 3.88038,6.9370442 -0.31672,-2.2717522 -1.09133,-4.4766652 -2.27893,-5.6642532 -0.47517,-0.475175 -1.01409,-0.898625 -1.60145,-1.272791 z m 0.97565,6.8476442 c -1.89209,0.7928425 -3.59127,1.831168 -4.91236,3.1522617 -0.98929,0.9892876 -1.8065,2.5964197 -2.40451,4.46226131 h 7.94267 c 1.63464,0 2.41403,-2.32586471 2.44068,-5.08651131 -1.15428,-0.6719755 -2.19028,-1.5281169 -3.06648,-2.5280117 z"
           style="opacity:1;fill:#000000;fill-opacity:1;stroke:none;stroke-width:0.87312496;stroke-linecap:butt;stroke-linejoin:miter;stroke-miterlimit:4;stroke-dasharray:none;stroke-opacity:0.97641512;paint-order:stroke fill markers" />
        <path
           inkscape:connector-curvature="0"
           id="path6297"
           d="m 194.35942,-20.856765 a 7.0551624,7.0551624 0 0 1 -7.05517,7.055162 7.0551624,7.0551624 0 0 1 -7.05516,-7.055162 7.0551624,7.0551624 0 0 1 7.05516,-7.055163 7.0551624,7.0551624 0 0 1 7.05517,7.055163 z"
           style="opacity:1;fill:#000000;fill-opacity:1;stroke:none;stroke-width:0.87312496;stroke-miterlimit:4;stroke-dasharray:none;stroke-opacity:0.97641512;paint-order:stroke fill markers" />
      </g>
      <g
         id="g6385">
        <path
           inkscape:connector-curvature="0"
           style="opacity:1;fill:#000000;fill-opacity:1;stroke:none;stroke-width:3.29999995;stroke-linecap:butt;stroke-linejoin:miter;stroke-miterlimit:4;stroke-dasharray:none;stroke-opacity:0.97641512;paint-order:stroke fill markers"
           d="m 274.69336,364.25195 c -0.86075,0.33835 -1.70048,0.70453 -2.5293,1.08594 -0.21845,8.7653 -3.07104,16.8799 -7.80078,23.58594 8.03834,3.24066 15.28156,7.7054 21.05078,13.47461 4.92356,4.92353 8.55242,12.20463 10.97656,20.39844 h 5.11719 c 2.40206,-9.20311 6.24562,-17.48199 11.66407,-22.9004 5.76955,-5.76959 13.01574,-10.23582 21.05468,-13.47656 -3.73354,-5.28673 -6.31055,-11.4448 -7.33594,-18.11523 -2.44242,-1.58214 -5.10906,-2.93803 -7.94531,-4.05274 -5.19209,6.49865 -13.17568,10.67188 -22.125,10.67188 -8.94909,0 -16.93482,-4.17357 -22.12695,-10.67188 z M 267,368.14062 c -2.21836,1.41393 -4.25573,3.01353 -6.05078,4.8086 -4.48883,4.48879 -7.41627,12.82353 -8.61328,21.41016 8.07144,-6.18205 13.58107,-15.53476 14.66406,-26.21876 z m 66.28125,5.45508 c 1.33416,4.06895 3.33395,7.83214 5.87695,11.16016 -1.4301,-4.47577 -3.39999,-8.41073 -5.87695,-11.16016 z m 2,17.92188 c -7.15487,2.99695 -13.57904,6.91887 -18.57422,11.91406 -4.17416,4.17415 -7.54204,11.25307 -9.84375,19.36524 h 25.83008 c 7.34362,0 10.11745,-12.41236 8.97266,-25.25196 -2.30995,-1.8083 -4.45254,-3.82284 -6.38477,-6.02734 z m -71.97656,2.49414 c -3.30864,3.77608 -7.22198,7.0106 -11.58008,9.55078 0.0986,10.43852 3.04433,19.23437 9.22461,19.23438 h 30.01953 c -2.26182,-7.05113 -5.35309,-13.12462 -9.0918,-16.86329 -4.99612,-4.99615 -11.4158,-8.92472 -18.57226,-11.92187 z"
           transform="matrix(0.26458333,0,0,0.26458333,63.806027,-45.094857)"
           id="path6301" />
        <path
           style="opacity:1;fill:#000000;fill-opacity:1;stroke:none;stroke-width:0.87312496;stroke-miterlimit:4;stroke-dasharray:none;stroke-opacity:0.97641512;paint-order:stroke fill markers"
           d="m 149.39503,46.611644 a 7.0551624,7.0551624 0 0 1 -7.05517,7.055163 7.0551624,7.0551624 0 0 1 -7.05516,-7.055163 7.0551624,7.0551624 0 0 1 7.05516,-7.055162 7.0551624,7.0551624 0 0 1 7.05517,7.055162 z"
           id="path6303"
           inkscape:connector-curvature="0" />
      </g>
      <g
         transform="translate(-80.697916,67.46875)"
         id="g6311">
        <path
           style="opacity:1;fill:#000000;fill-opacity:1;stroke:none;stroke-width:1.32291663;stroke-linecap:butt;stroke-linejoin:miter;stroke-miterlimit:4;stroke-dasharray:none;stroke-opacity:0.97641512;paint-order:stroke fill markers"
           d="m 214.04057,-9.1152583 c -2.08144,2.6052013 -5.28211,4.2788099 -8.86975,4.2788073 -3.58753,0 -6.78881,-1.673225 -8.87026,-4.2782913 -2.12413,0.8349668 -4.02076,1.9965961 -5.51025,3.4860917 -4.71018,4.71015216 -5.15779,19.9832776 0,19.9832776 h 28.76155 c 5.15778,0 4.71018,-15.27312544 0,-19.9832776 -1.48974,-1.4897417 -3.38673,-2.6516118 -5.51129,-3.4866077 z"
           id="path6307"
           inkscape:connector-curvature="0" />
        <path
           style="opacity:1;fill:#000000;fill-opacity:1;stroke:none;stroke-width:1.32291663;stroke-miterlimit:4;stroke-dasharray:none;stroke-opacity:0.97641512;paint-order:stroke fill markers"
           d="m 215.86062,-16.188455 a 10.68964,10.68964 0 0 1 -10.68964,10.6896401 10.68964,10.68964 0 0 1 -10.68964,-10.6896401 10.68964,10.68964 0 0 1 10.68964,-10.68964 10.68964,10.68964 0 0 1 10.68964,10.68964 z"
           id="path6309"
           inkscape:connector-curvature="0" />
      </g>
      <g
         id="g6393">
        <path
           inkscape:connector-curvature="0"
           style="opacity:1;fill:#000000;fill-opacity:1;stroke:none;stroke-width:3.29999995;stroke-linecap:butt;stroke-linejoin:miter;stroke-miterlimit:4;stroke-dasharray:none;stroke-opacity:0.97641512;paint-order:stroke fill markers"
           d="m 463.89062,364.25195 c -5.19211,6.49865 -13.17763,10.67384 -22.12695,10.67383 -8.94909,0 -16.93287,-4.17357 -22.125,-10.67187 -2.83709,1.11521 -5.50414,2.47196 -7.94726,4.05468 -1.02546,6.66895 -3.6005,12.82594 -7.33203,18.11133 8.03988,3.24077 15.28452,7.70639 21.05468,13.47656 5.41882,5.41878 9.26205,13.69847 11.66406,22.90235 h 5.11524 c 2.42419,-8.19454 6.05458,-15.4765 10.97852,-20.40039 5.76856,-5.76863 13.0135,-10.23397 21.05078,-13.47461 -4.73031,-6.70537 -7.58383,-14.81981 -7.80274,-23.58399 -0.8293,-0.38152 -1.66813,-0.74943 -2.5293,-1.08789 z m 7.69532,3.88672 c 1.08287,10.68385 6.59336,20.03633 14.66601,26.21875 -1.19705,-8.58615 -4.12471,-16.91968 -8.61328,-21.4082 -1.79592,-1.79594 -3.83279,-3.39638 -6.05273,-4.81055 z m -66.28125,5.45703 c -2.47772,2.75029 -4.4487,6.68645 -5.87891,11.16407 2.54382,-3.32909 4.54467,-7.09334 5.87891,-11.16407 z m -2,17.92188 c -1.93214,2.205 -4.07633,4.21892 -6.38672,6.02734 -1.14456,12.84023 1.63099,25.25391 8.97461,25.25391 h 25.83398 c -2.30365,-8.113 -5.67509,-15.1927 -9.84961,-19.36719 -4.99604,-4.99606 -11.41595,-8.91693 -18.57226,-11.91406 z m 71.96875,2.50195 c -7.15121,2.99657 -13.57331,6.92095 -18.56641,11.91406 -3.73905,3.73905 -6.82769,9.81324 -9.08789,16.86524 h 30.01953 c 6.17817,0 9.12389,-8.79067 9.22461,-19.22461 -4.36263,-2.53975 -8.27822,-5.77556 -11.58984,-9.55469 z"
           transform="matrix(0.26458333,0,0,0.26458333,63.806027,-45.094857)"
           id="path6315" />
        <path
           style="opacity:1;fill:#000000;fill-opacity:1;stroke:none;stroke-width:0.87312496;stroke-miterlimit:4;stroke-dasharray:none;stroke-opacity:0.97641512;paint-order:stroke fill markers"
           d="m 187.74483,46.611985 a 7.0551624,7.0551624 0 0 1 -7.05517,7.055162 7.0551624,7.0551624 0 0 1 -7.05516,-7.055162 7.0551624,7.0551624 0 0 1 7.05516,-7.055163 7.0551624,7.0551624 0 0 1 7.05517,7.055163 z"
           id="path6317"
           inkscape:connector-curvature="0" />
      </g>
      <g
         transform="translate(-6.6145851,67.46875)"
         id="g6325">
        <path
           inkscape:connector-curvature="0"
           style="opacity:1;fill:#000000;fill-opacity:1;stroke:none;stroke-width:0.87312496;stroke-linecap:butt;stroke-linejoin:miter;stroke-miterlimit:4;stroke-dasharray:none;stroke-opacity:0.97641512;paint-order:stroke fill markers"
           d="m 217.18323,-16.188612 c -0.22774,0.08952 -0.44992,0.186407 -0.66921,0.287321 -0.0578,2.319153 -0.81255,4.466141 -2.06396,6.2404469 2.12681,0.8574246 4.04325,2.0387204 5.56969,3.5651572 1.30269,1.302684 2.26282,3.2291416 2.90421,5.39708717 h 9.6051 c 3.40414,0 3.10872,-10.08015927 0,-13.18886027 -0.98323,-0.983231 -2.2353,-1.750054 -3.63751,-2.301152 -1.37374,1.719434 -3.48606,2.823601 -5.8539,2.823601 -2.36778,0 -4.48067,-1.104257 -5.85442,-2.823601 z m -2.03554,1.028877 c -0.58694,0.3741 -1.12599,0.79733 -1.60093,1.272275 -1.18767,1.187659 -1.96222,3.392895 -2.27893,5.6647718 2.13557,-1.6356647 3.59332,-4.1102388 3.87986,-6.9370468 z m -0.97772,6.8450618 c -0.87541,0.9990878 -1.91081,1.8548879 -3.06389,2.5269772 0.0261,2.7618583 0.80548,5.08909627 2.44068,5.08909627 h 7.94266 c -0.59844,-1.86561147 -1.41634,-3.47255567 -2.40554,-4.46174537 -1.32189,-1.3218981 -3.02043,-2.3613322 -4.91391,-3.1543281 z"
           id="path6321" />
        <path
           inkscape:connector-curvature="0"
           id="path6323"
           d="m 230.09295,-20.857106 a 7.0551624,7.0551624 0 0 1 -7.05517,7.055163 7.0551624,7.0551624 0 0 1 -7.05516,-7.055163 7.0551624,7.0551624 0 0 1 7.05516,-7.055162 7.0551624,7.0551624 0 0 1 7.05517,7.055162 z"
           style="opacity:1;fill:#000000;fill-opacity:1;stroke:none;stroke-width:0.87312496;stroke-miterlimit:4;stroke-dasharray:none;stroke-opacity:0.97641512;paint-order:stroke fill markers" />
      </g>
      <g
         transform="translate(-6.6145851,67.46875)"
         id="g6331">
        <path
           inkscape:connector-curvature="0"
           id="path6327"
           d="m 214.04057,-9.1152583 c -2.08144,2.6052013 -5.28211,4.2788099 -8.86975,4.2788073 -3.58753,0 -6.78881,-1.673225 -8.87026,-4.2782913 -2.12413,0.8349668 -4.02076,1.9965961 -5.51025,3.4860917 -4.71018,4.71015216 -5.15779,19.9832776 0,19.9832776 h 28.76155 c 5.15778,0 4.71018,-15.27312544 0,-19.9832776 -1.48974,-1.4897417 -3.38673,-2.6516118 -5.51129,-3.4866077 z"
           style="opacity:1;fill:#000000;fill-opacity:1;stroke:none;stroke-width:1.32291663;stroke-linecap:butt;stroke-linejoin:miter;stroke-miterlimit:4;stroke-dasharray:none;stroke-opacity:0.97641512;paint-order:stroke fill markers" />
        <path
           inkscape:connector-curvature="0"
           id="path6329"
           d="m 215.86062,-16.188455 a 10.68964,10.68964 0 0 1 -10.68964,10.6896401 10.68964,10.68964 0 0 1 -10.68964,-10.6896401 10.68964,10.68964 0 0 1 10.68964,-10.68964 10.68964,10.68964 0 0 1 10.68964,10.68964 z"
           style="opacity:1;fill:#000000;fill-opacity:1;stroke:none;stroke-width:1.32291663;stroke-miterlimit:4;stroke-dasharray:none;stroke-opacity:0.97641512;paint-order:stroke fill markers" />
      </g>
      <g
         id="g6389">
        <path
           inkscape:connector-curvature="0"
           id="path6335"
           d="m 170.38428,57.692033 c -2.08144,2.605201 -5.28211,4.27881 -8.86975,4.278807 -3.58753,0 -6.78881,-1.673225 -8.87026,-4.278291 -2.12413,0.834966 -4.02076,1.996596 -5.51025,3.486091 -4.71018,4.710153 -5.15779,19.983278 0,19.983278 h 28.76155 c 5.15778,0 4.71018,-15.273125 0,-19.983278 -1.48974,-1.489741 -3.38673,-2.651611 -5.51129,-3.486607 z"
           style="opacity:1;fill:#000000;fill-opacity:1;stroke:none;stroke-width:1.32291663;stroke-linecap:butt;stroke-linejoin:miter;stroke-miterlimit:4;stroke-dasharray:none;stroke-opacity:0.45754718;paint-order:stroke fill markers" />
        <path
           inkscape:connector-curvature="0"
           id="path6337"
           d="m 172.20432,50.618836 a 10.68964,10.68964 0 0 1 -10.68964,10.68964 10.68964,10.68964 0 0 1 -10.68964,-10.68964 10.68964,10.68964 0 0 1 10.68964,-10.68964 10.68964,10.68964 0 0 1 10.68964,10.68964 z"
           style="opacity:1;fill:#000000;fill-opacity:1;stroke:none;stroke-width:1.32291663;stroke-miterlimit:4;stroke-dasharray:none;stroke-opacity:0.45754718;paint-order:stroke fill markers" />
      </g>
    </g>
  </g>
</svg>
