<?xml version="1.0" encoding="UTF-8" standalone="no"?>
<!-- Created with Inkscape (http://www.inkscape.org/) -->

<svg
   xmlns:dc="http://purl.org/dc/elements/1.1/"
   xmlns:cc="http://creativecommons.org/ns#"
   xmlns:rdf="http://www.w3.org/1999/02/22-rdf-syntax-ns#"
   xmlns:svg="http://www.w3.org/2000/svg"
   xmlns="http://www.w3.org/2000/svg"
   xmlns:sodipodi="http://sodipodi.sourceforge.net/DTD/sodipodi-0.dtd"
   xmlns:inkscape="http://www.inkscape.org/namespaces/inkscape"
   width="200"
   height="40"
   viewBox="0 0 52.916668 10.583334"
   version="1.1"
   id="svg8"
   inkscape:version="0.92.4 (5da689c313, 2019-01-14)"
   sodipodi:docname="Morphic Community Logo.svg"
   inkscape:export-filename="C:\Users\danai\Desktop\QSS.png"
   inkscape:export-xdpi="164.2"
   inkscape:export-ydpi="164.2">
  <defs
     id="defs2" />
  <sodipodi:namedview
     id="base"
     pagecolor="#ffffff"
     bordercolor="#666666"
     borderopacity="1.0"
     inkscape:pageopacity="0.0"
     inkscape:pageshadow="2"
     inkscape:zoom="10.635"
     inkscape:cx="99.999999"
     inkscape:cy="19.999991"
     inkscape:document-units="mm"
     inkscape:current-layer="layer1"
     showgrid="false"
     inkscape:window-width="2560"
     inkscape:window-height="1377"
     inkscape:window-x="-8"
     inkscape:window-y="-8"
     inkscape:window-maximized="1"
     showguides="true"
     inkscape:guide-bbox="true"
     units="px" />
  <metadata
     id="metadata5">
    <rdf:RDF>
      <cc:Work
         rdf:about="">
        <dc:format>image/svg+xml</dc:format>
        <dc:type
           rdf:resource="http://purl.org/dc/dcmitype/StillImage" />
        <dc:title></dc:title>
      </cc:Work>
    </rdf:RDF>
  </metadata>
  <g
     inkscape:label="Layer 1"
     inkscape:groupmode="layer"
     id="layer1"
     transform="translate(0,-286.41666)">
    <g
       id="g4811"
       transform="matrix(0.62223149,0,0,0.62223149,-45.056297,159.88082)">
      <g
         style="fill:#8dd35f"
         transform="matrix(0.36479774,0,0,0.36479774,68.604391,201.3547)"
         id="g577">
        <linearGradient
           id="SVGID_1_"
           gradientUnits="userSpaceOnUse"
           x1="31.709801"
           y1="13.7131"
           x2="31.709801"
           y2="53.779202"
           gradientTransform="matrix(1,0,0,-1,0,60)">
          <stop
             offset="0"
             style="stop-color:#008145"
             id="stop562" />
          <stop
             offset="0.193"
             style="stop-color:#00924C"
             id="stop564" />
          <stop
             offset="0.432"
             style="stop-color:#3FA554"
             id="stop566" />
          <stop
             offset="0.6539"
             style="stop-color:#66B55A"
             id="stop568" />
          <stop
             offset="0.8501"
             style="stop-color:#7CC05F"
             id="stop570" />
          <stop
             offset="1"
             style="stop-color:#84C661"
             id="stop572" />
        </linearGradient>
        <path
           style="fill:#8dd35f"
           inkscape:connector-curvature="0"
           class="st2"
           d="m 31,6.2 c -0.3,0 -0.5,0.2 -0.5,0.5 v 4.5 c 0,0.3 -0.3,0.6 -0.6,0.6 h -1.5 c -5.2,0.2 -9.7,2.6 -12.8,6.3 -0.7,0.9 -1.3,1.8 -1.9,2.8 -0.5,1 -1,2 -1.3,3.1 -0.5,1.6 -0.8,3.4 -0.8,5.1 v 0 0 0 c 0,9.5 7.7,17.3 17.3,17.3 v 0 0 0 c 5.6,0 10.1,-4.5 10.1,-10.1 0,-4 -3.2,-7.2 -7.2,-7.2 -2.8,0 -5,2.3 -5,5 0,1.9 1.5,3.4 3.4,3.4 1.1,0 2,-0.8 2.2,-1.8 0,-0.2 0.3,-0.4 0.5,-0.3 1.5,0.3 2.2,2.2 1,3.4 -0.9,1 -2.3,1.6 -3.7,1.6 -3.5,0 -6.3,-2.8 -6.3,-6.3 0,-4.4 3.6,-7.9 7.9,-7.9 2.6,0 4.9,1 6.7,2.6 0.2,0.2 0.6,0.3 0.9,0.3 h 11.9 c 0.3,0 0.6,-0.3 0.5,-0.6 C 51.6,16.7 42.5,7.2 31,6.2 Z m 12.3,20 c -1.7,0 -3.2,-1.4 -3.2,-3.2 0,-1.7 1.4,-3.2 3.2,-3.2 1.7,0 3.2,1.4 3.2,3.2 -0.1,1.8 -1.5,3.2 -3.2,3.2 z"
           id="path575" />
      </g>
      <text
         id="text274"
         y="212.06584"
         x="88.584625"
         style="font-style:normal;font-variant:normal;font-weight:bold;font-stretch:normal;font-size:11.45452309px;line-height:1.25;font-family:'Yu Gothic UI';-inkscape-font-specification:'Yu Gothic UI, Bold';font-variant-ligatures:normal;font-variant-caps:normal;font-variant-numeric:normal;font-feature-settings:normal;text-align:start;letter-spacing:0px;word-spacing:0px;writing-mode:lr-tb;text-anchor:start;fill:#214478;fill-opacity:1;stroke:none;stroke-width:0.28636307"
         xml:space="preserve"><tspan
           style="font-style:normal;font-variant:normal;font-weight:bold;font-stretch:normal;font-size:11.45452309px;font-family:'Yu Gothic UI';-inkscape-font-specification:'Yu Gothic UI, Bold';font-variant-ligatures:normal;font-variant-caps:normal;font-variant-numeric:normal;font-feature-settings:normal;text-align:start;writing-mode:lr-tb;text-anchor:start;fill:#214478;stroke-width:0.28636307"
           y="212.06584"
           x="88.584625"
           id="tspan272"
           sodipodi:role="line">Morphic</tspan></text>
      <text
         xml:space="preserve"
         style="font-style:normal;font-variant:normal;font-weight:bold;font-stretch:normal;font-size:7.74876404px;line-height:1.25;font-family:Alef;-inkscape-font-specification:'Alef, Bold';font-variant-ligatures:normal;font-variant-caps:normal;font-variant-numeric:normal;font-feature-settings:normal;text-align:start;letter-spacing:0px;word-spacing:0px;writing-mode:lr-tb;text-anchor:start;fill:#8dd35f;fill-opacity:1;stroke:none;stroke-width:0.19371726"
         x="113.48381"
         y="218.54906"
         id="text278"><tspan
           sodipodi:role="line"
           id="tspan276"
           x="113.48381"
           y="218.54906"
           style="font-style:normal;font-variant:normal;font-weight:bold;font-stretch:normal;font-size:7.74876404px;font-family:Alef;-inkscape-font-specification:'Alef, Bold';font-variant-ligatures:normal;font-variant-caps:normal;font-variant-numeric:normal;font-feature-settings:normal;text-align:start;writing-mode:lr-tb;text-anchor:start;fill:#8dd35f;stroke-width:0.19371726">Community</tspan></text>
    </g>
  </g>
  <style
     id="style534"
     type="text/css">
	.st0{fill:#002957;}
	.st1{fill:none;}
	.st2{fill:url(#SVGID_1_);}
</style>
</svg>
