<?xml version="1.0" encoding="UTF-8" standalone="no"?>
<svg
   xmlns:dc="http://purl.org/dc/elements/1.1/"
   xmlns:cc="http://creativecommons.org/ns#"
   xmlns:rdf="http://www.w3.org/1999/02/22-rdf-syntax-ns#"
   xmlns:svg="http://www.w3.org/2000/svg"
   xmlns="http://www.w3.org/2000/svg"
   xmlns:sodipodi="http://sodipodi.sourceforge.net/DTD/sodipodi-0.dtd"
   xmlns:inkscape="http://www.inkscape.org/namespaces/inkscape"
   inkscape:version="1.0 (4035a4fb49, 2020-05-01)"
   height="58"
   width="57.700001"
   sodipodi:docname="logo-color.svg"
   xml:space="preserve"
   viewBox="0 0 57.700001 58"
   y="0px"
   x="0px"
   id="Layer_1"
   version="1.1"><metadata
   id="metadata120"><rdf:RDF><cc:Work
       rdf:about=""><dc:format>image/svg+xml</dc:format><dc:type
         rdf:resource="http://purl.org/dc/dcmitype/StillImage" /><dc:title></dc:title></cc:Work></rdf:RDF></metadata><defs
   id="defs118">
	
	
</defs><sodipodi:namedview
   inkscape:current-layer="Layer_1"
   inkscape:window-maximized="1"
   inkscape:window-y="-8"
   inkscape:window-x="-8"
   inkscape:cy="29"
   inkscape:cx="54.897731"
   inkscape:zoom="8.2344498"
   showgrid="false"
   id="namedview116"
   inkscape:window-height="1017"
   inkscape:window-width="1920"
   inkscape:pageshadow="2"
   inkscape:pageopacity="0"
   guidetolerance="10"
   gridtolerance="10"
   objecttolerance="10"
   borderopacity="1"
   bordercolor="#666666"
   pagecolor="#ffffff" />
<style
   id="style66"
   type="text/css">
	.st0{fill:#002957;}
	.st1{fill:none;}
	.st2{fill:url(#SVGID_1_);}
</style>
<g
   id="g111">
		<g
   id="g92">
			<path
   class="st1"
   d="M 29,0.2 Z"
   id="path86" />
			<path
   class="st0"
   d="m 57.8,29 v 0 0 0 0 C 57.8,13.1 44.9,0.2 29,0.2 v 0 h -3.8 c -0.3,0 -0.5,0.2 -0.5,0.5 0,0 0,3.8 0,5.1 0,0.2 -0.2,0.4 -0.4,0.5 C 23.4,6.5 22.6,6.7 21.8,7 21.6,7.1 21.4,7 21.2,6.8 l -3,-4.2 C 18,2.4 17.7,2.3 17.5,2.5 l -5.7,3.3 c -0.2,0.1 -0.3,0.4 -0.2,0.7 l 2.2,4.7 c 0.1,0.2 0,0.5 -0.1,0.6 -0.7,0.6 -1.3,1.2 -1.9,1.8 -0.2,0.2 -0.4,0.2 -0.6,0.1 L 6.5,11.5 C 6.3,11.4 6,11.5 5.8,11.7 L 2.5,17.4 C 2.3,17.6 2.4,18 2.6,18.1 l 4.2,3 c 0.2,0.1 0.3,0.4 0.2,0.6 -0.3,0.8 -0.5,1.7 -0.7,2.5 0,0.2 -0.2,0.4 -0.5,0.4 l -5.2,0.5 c -0.3,0 -0.5,0.3 -0.5,0.5 v 3.3 0 3.3 c 0,0.3 0.2,0.5 0.5,0.5 l 5.2,0.5 c 0.2,0 0.4,0.2 0.5,0.4 0.2,0.9 0.4,1.7 0.7,2.5 0.1,0.2 0,0.4 -0.2,0.6 l -4.2,3 c -0.2,0.2 -0.3,0.5 -0.1,0.7 l 3.3,5.7 c 0.1,0.2 0.4,0.3 0.7,0.2 l 4.7,-2.2 c 0.2,-0.1 0.5,0 0.6,0.1 0.6,0.7 1.2,1.3 1.8,1.9 0.2,0.2 0.2,0.4 0.1,0.6 l -2.2,4.7 c -0.1,0.2 0,0.5 0.2,0.7 l 5.7,3.3 c 0.2,0.2 0.6,0.1 0.7,-0.1 l 3,-4.2 c 0.1,-0.2 0.4,-0.3 0.6,-0.2 0.8,0.3 1.7,0.5 2.5,0.7 0.2,0 0.4,0.2 0.4,0.5 l 0.5,5.2 c 0,0.3 0.3,0.5 0.5,0.5 h 6.6 c 0.3,0 0.5,-0.2 0.5,-0.5 l 0.5,-5.2 c 0,-0.2 0.2,-0.4 0.4,-0.5 0.9,-0.2 1.7,-0.4 2.5,-0.7 0.2,-0.1 0.4,0 0.6,0.2 l 3,4.2 c 0.2,0.2 0.5,0.3 0.7,0.1 l 5.7,-3.3 c 0.2,-0.1 0.3,-0.4 0.2,-0.7 l -2.2,-4.7 c -0.1,-0.2 0,-0.5 0.1,-0.6 0.7,-0.6 1.3,-1.2 1.9,-1.8 0.2,-0.2 0.4,-0.2 0.6,-0.1 l 4.7,2.2 c 0.2,0.1 0.5,0 0.7,-0.2 l 3.3,-5.7 c 0.2,-0.2 0.1,-0.6 -0.1,-0.7 l -4.2,-3 c -0.2,-0.1 -0.3,-0.4 -0.2,-0.6 0.3,-0.8 0.5,-1.7 0.7,-2.5 0,-0.2 0.2,-0.4 0.5,-0.4 h 5.1 c 0.3,-0.1 0.5,-0.2 0.5,-0.5 z"
   id="path88" />
			<polygon
   class="st0"
   points=""
   id="polygon90" />
		</g>
		<g
   id="g109">
			
				<linearGradient
   id="SVGID_1_"
   gradientUnits="userSpaceOnUse"
   x1="31.709801"
   y1="13.7131"
   x2="31.709801"
   y2="53.779202"
   gradientTransform="matrix(1,0,0,-1,0,60)">
				<stop
   offset="0"
   style="stop-color:#008145"
   id="stop94" />
				<stop
   offset="0.193"
   style="stop-color:#00924C"
   id="stop96" />
				<stop
   offset="0.432"
   style="stop-color:#3FA554"
   id="stop98" />
				<stop
   offset="0.6539"
   style="stop-color:#66B55A"
   id="stop100" />
				<stop
   offset="0.8501"
   style="stop-color:#7CC05F"
   id="stop102" />
				<stop
   offset="1"
   style="stop-color:#84C661"
   id="stop104" />
			</linearGradient>
			<path
   class="st2"
   d="m 31,6.2 c -0.3,0 -0.5,0.2 -0.5,0.5 v 4.5 c 0,0.3 -0.3,0.6 -0.6,0.6 h -1.5 c -5.2,0.2 -9.7,2.6 -12.8,6.3 -0.7,0.9 -1.3,1.8 -1.9,2.8 -0.5,1 -1,2 -1.3,3.1 -0.5,1.6 -0.8,3.4 -0.8,5.1 v 0 0 0 c 0,9.5 7.7,17.3 17.3,17.3 v 0 0 0 c 5.6,0 10.1,-4.5 10.1,-10.1 0,-4 -3.2,-7.2 -7.2,-7.2 -2.8,0 -5,2.3 -5,5 0,1.9 1.5,3.4 3.4,3.4 1.1,0 2,-0.8 2.2,-1.8 0,-0.2 0.3,-0.4 0.5,-0.3 1.5,0.3 2.2,2.2 1,3.4 -0.9,1 -2.3,1.6 -3.7,1.6 -3.5,0 -6.3,-2.8 -6.3,-6.3 0,-4.4 3.6,-7.9 7.9,-7.9 2.6,0 4.9,1 6.7,2.6 0.2,0.2 0.6,0.3 0.9,0.3 h 11.9 c 0.3,0 0.6,-0.3 0.5,-0.6 C 51.6,16.7 42.5,7.2 31,6.2 Z m 12.3,20 c -1.7,0 -3.2,-1.4 -3.2,-3.2 0,-1.7 1.4,-3.2 3.2,-3.2 1.7,0 3.2,1.4 3.2,3.2 -0.1,1.8 -1.5,3.2 -3.2,3.2 z"
   id="path107"
   style="fill:url(#SVGID_1_)" />
		</g>
	</g>
</svg>
