<?xml version="1.0" encoding="UTF-8" standalone="no"?>
<!-- Created with Inkscape (http://www.inkscape.org/) -->

<svg
   xmlns:dc="http://purl.org/dc/elements/1.1/"
   xmlns:cc="http://creativecommons.org/ns#"
   xmlns:rdf="http://www.w3.org/1999/02/22-rdf-syntax-ns#"
   xmlns:svg="http://www.w3.org/2000/svg"
   xmlns="http://www.w3.org/2000/svg"
   xmlns:sodipodi="http://sodipodi.sourceforge.net/DTD/sodipodi-0.dtd"
   xmlns:inkscape="http://www.inkscape.org/namespaces/inkscape"
   width="59.603199mm"
   height="42.266895mm"
   viewBox="0 0 59.603198 42.266895"
   version="1.1"
   id="svg6424"
   inkscape:version="0.92.5 (2060ec1f9f, 2020-04-08)"
   sodipodi:docname="people.svg">
  <defs
     id="defs6418" />
  <sodipodi:namedview
     id="base"
     pagecolor="#ffffff"
     bordercolor="#666666"
     borderopacity="1.0"
     inkscape:pageopacity="0.0"
     inkscape:pageshadow="2"
     inkscape:zoom="0.35"
     inkscape:cx="-59.0182"
     inkscape:cy="-313.63402"
     inkscape:document-units="mm"
     inkscape:current-layer="layer1"
     showgrid="false"
     inkscape:window-width="1280"
     inkscape:window-height="967"
     inkscape:window-x="1024"
     inkscape:window-y="0"
     inkscape:window-maximized="1" />
  <metadata
     id="metadata6421">
    <rdf:RDF>
      <cc:Work
         rdf:about="">
        <dc:format>image/svg+xml</dc:format>
        <dc:type
           rdf:resource="http://purl.org/dc/dcmitype/StillImage" />
        <dc:title></dc:title>
        <cc:license
           rdf:resource="http://creativecommons.org/licenses/by/4.0/" />
        <dc:creator>
          <cc:Agent>
            <dc:title>Steve Grundell</dc:title>
          </cc:Agent>
        </dc:creator>
        <dc:publisher>
          <cc:Agent>
            <dc:title>Raising the Floor</dc:title>
          </cc:Agent>
        </dc:publisher>
      </cc:Work>
      <cc:License
         rdf:about="http://creativecommons.org/licenses/by/4.0/">
        <cc:permits
           rdf:resource="http://creativecommons.org/ns#Reproduction" />
        <cc:permits
           rdf:resource="http://creativecommons.org/ns#Distribution" />
        <cc:requires
           rdf:resource="http://creativecommons.org/ns#Notice" />
        <cc:requires
           rdf:resource="http://creativecommons.org/ns#Attribution" />
        <cc:permits
           rdf:resource="http://creativecommons.org/ns#DerivativeWorks" />
      </cc:License>
    </rdf:RDF>
  </metadata>
  <g
     inkscape:label="Layer 1"
     inkscape:groupmode="layer"
     id="layer1"
     transform="translate(10.843101,-23.584105)">
    <g
       transform="translate(-186.21254,51.496373)"
       id="g6293">
      <g
         id="g6272">
        <path
           style="opacity:1;fill:#000000;fill-opacity:1;stroke:none;stroke-width:0.87312496;stroke-linecap:butt;stroke-linejoin:miter;stroke-miterlimit:4;stroke-dasharray:none;stroke-opacity:0.97641512;paint-order:stroke fill markers"
           d="m 193.15834,-16.188612 c -1.37375,1.719434 -3.48659,2.82412 -5.85443,2.824117 -2.36778,0 -4.48015,-1.104257 -5.8539,-2.823599 -1.40193,0.551077 -2.65393,1.317567 -3.63699,2.300634 -3.10872,3.108701 -3.40415,13.18937621 0,13.18937621 h 9.60458 c 0.6414,-2.16813871 1.60195,-4.09482391 2.90474,-5.39760311 1.52627,-1.5262833 3.44315,-2.7077379 5.56968,-3.5651572 -1.25156,-1.7741289 -2.00655,-3.9210769 -2.06447,-6.2399309 -0.21942,-0.100944 -0.44136,-0.198286 -0.66921,-0.287837 z m 2.03605,1.028361 c 0.28651,2.826769 1.74449,5.301279 3.88038,6.9370442 -0.31672,-2.2717522 -1.09133,-4.4766652 -2.27893,-5.6642532 -0.47517,-0.475175 -1.01409,-0.898625 -1.60145,-1.272791 z m 0.97565,6.8476442 c -1.89209,0.7928425 -3.59127,1.831168 -4.91236,3.1522617 -0.98929,0.9892876 -1.8065,2.5964197 -2.40451,4.46226131 h 7.94267 c 1.63464,0 2.41403,-2.32586471 2.44068,-5.08651131 -1.15428,-0.6719755 -2.19028,-1.5281169 -3.06648,-2.5280117 z"
           id="path6193"
           inkscape:connector-curvature="0" />
        <path
           style="opacity:1;fill:#000000;fill-opacity:1;stroke:none;stroke-width:0.87312496;stroke-miterlimit:4;stroke-dasharray:none;stroke-opacity:0.97641512;paint-order:stroke fill markers"
           d="m 194.35942,-20.856765 a 7.0551624,7.0551624 0 0 1 -7.05517,7.055162 7.0551624,7.0551624 0 0 1 -7.05516,-7.055162 7.0551624,7.0551624 0 0 1 7.05516,-7.055163 7.0551624,7.0551624 0 0 1 7.05517,7.055163 z"
           id="path6195"
           inkscape:connector-curvature="0" />
      </g>
      <g
         id="g6278">
        <path
           inkscape:connector-curvature="0"
           style="opacity:1;fill:#000000;fill-opacity:1;stroke:none;stroke-width:0.87312496;stroke-linecap:butt;stroke-linejoin:miter;stroke-miterlimit:4;stroke-dasharray:none;stroke-opacity:0.97641512;paint-order:stroke fill markers"
           d="m 217.18323,-16.188612 c -0.22774,0.08952 -0.44992,0.186407 -0.66921,0.287321 -0.0578,2.319153 -0.81255,4.466141 -2.06396,6.2404469 2.12681,0.8574246 4.04325,2.0387204 5.56969,3.5651572 1.30269,1.302684 2.26282,3.2291416 2.90421,5.39708717 h 9.6051 c 3.40414,0 3.10872,-10.08015927 0,-13.18886027 -0.98323,-0.983231 -2.2353,-1.750054 -3.63751,-2.301152 -1.37374,1.719434 -3.48606,2.823601 -5.8539,2.823601 -2.36778,0 -4.48067,-1.104257 -5.85442,-2.823601 z m -2.03554,1.028877 c -0.58694,0.3741 -1.12599,0.79733 -1.60093,1.272275 -1.18767,1.187659 -1.96222,3.392895 -2.27893,5.6647718 2.13557,-1.6356647 3.59332,-4.1102388 3.87986,-6.9370468 z m -0.97772,6.8450618 c -0.87541,0.9990878 -1.91081,1.8548879 -3.06389,2.5269772 0.0261,2.7618583 0.80548,5.08909627 2.44068,5.08909627 h 7.94266 c -0.59844,-1.86561147 -1.41634,-3.47255567 -2.40554,-4.46174537 -1.32189,-1.3218981 -3.02043,-2.3613322 -4.91391,-3.1543281 z"
           id="path6199" />
        <path
           inkscape:connector-curvature="0"
           id="path6201"
           d="m 230.09295,-20.857106 a 7.0551624,7.0551624 0 0 1 -7.05517,7.055163 7.0551624,7.0551624 0 0 1 -7.05516,-7.055163 7.0551624,7.0551624 0 0 1 7.05516,-7.055162 7.0551624,7.0551624 0 0 1 7.05517,7.055162 z"
           style="opacity:1;fill:#000000;fill-opacity:1;stroke:none;stroke-width:0.87312496;stroke-miterlimit:4;stroke-dasharray:none;stroke-opacity:0.97641512;paint-order:stroke fill markers" />
      </g>
      <g
         id="g6282">
        <path
           inkscape:connector-curvature="0"
           id="path6177"
           d="m 214.04057,-9.1152583 c -2.08144,2.6052013 -5.28211,4.2788099 -8.86975,4.2788073 -3.58753,0 -6.78881,-1.673225 -8.87026,-4.2782913 -2.12413,0.8349668 -4.02076,1.9965961 -5.51025,3.4860917 -4.71018,4.71015216 -5.15779,19.9832776 0,19.9832776 h 28.76155 c 5.15778,0 4.71018,-15.27312544 0,-19.9832776 -1.48974,-1.4897417 -3.38673,-2.6516118 -5.51129,-3.4866077 z"
           style="opacity:1;fill:#000000;fill-opacity:1;stroke:none;stroke-width:1.32291663;stroke-linecap:butt;stroke-linejoin:miter;stroke-miterlimit:4;stroke-dasharray:none;stroke-opacity:0.97641512;paint-order:stroke fill markers" />
        <path
           inkscape:connector-curvature="0"
           id="path6179"
           d="m 215.86062,-16.188455 a 10.68964,10.68964 0 0 1 -10.68964,10.6896401 10.68964,10.68964 0 0 1 -10.68964,-10.6896401 10.68964,10.68964 0 0 1 10.68964,-10.68964 10.68964,10.68964 0 0 1 10.68964,10.68964 z"
           style="opacity:1;fill:#000000;fill-opacity:1;stroke:none;stroke-width:1.32291663;stroke-miterlimit:4;stroke-dasharray:none;stroke-opacity:0.97641512;paint-order:stroke fill markers" />
      </g>
    </g>
  </g>
</svg>
