<?xml version="1.0" encoding="UTF-8" standalone="no"?>
<svg
   xmlns:dc="http://purl.org/dc/elements/1.1/"
   xmlns:cc="http://creativecommons.org/ns#"
   xmlns:rdf="http://www.w3.org/1999/02/22-rdf-syntax-ns#"
   xmlns:svg="http://www.w3.org/2000/svg"
   xmlns="http://www.w3.org/2000/svg"
   xmlns:sodipodi="http://sodipodi.sourceforge.net/DTD/sodipodi-0.dtd"
   xmlns:inkscape="http://www.inkscape.org/namespaces/inkscape"
   version="1.1"
   width="156.262"
   id="svg1609"
   height="144.407"
   sodipodi:docname="warning.svg"
   inkscape:version="0.92.5 (2060ec1f9f, 2020-04-08)">
  <sodipodi:namedview
     pagecolor="#ffffff"
     bordercolor="#666666"
     borderopacity="1"
     objecttolerance="10"
     gridtolerance="10"
     guidetolerance="10"
     inkscape:pageopacity="0"
     inkscape:pageshadow="2"
     inkscape:window-width="1280"
     inkscape:window-height="967"
     id="namedview18"
     showgrid="false"
     inkscape:zoom="6.5370793"
     inkscape:cx="83.932523"
     inkscape:cy="59.991544"
     inkscape:window-x="1024"
     inkscape:window-y="0"
     inkscape:window-maximized="1"
     inkscape:current-layer="svg1609" />
  <title
     id="title4599">Warning sign</title>
  <metadata
     id="metadata2">
    <rdf:RDF>
      <cc:Work
         rdf:about="">
        <dc:title>Warning sign</dc:title>
        <dc:description />
        <dc:subject>
          <rdf:Bag>
            <rdf:li />
            <rdf:li>caution</rdf:li>
            <rdf:li>security</rdf:li>
            <rdf:li>warning</rdf:li>
            <rdf:li>signs_and_symbols</rdf:li>
            <rdf:li>sign</rdf:li>
          </rdf:Bag>
        </dc:subject>
        <dc:publisher>
          <cc:Agent
             rdf:about="http://www.openclipart.org">
            <dc:title>Thomas Weller</dc:title>
          </cc:Agent>
        </dc:publisher>
        <dc:creator>
          <cc:Agent>
            <dc:title>Thomas Weller</dc:title>
          </cc:Agent>
        </dc:creator>
        <dc:rights>
          <cc:Agent>
            <dc:title>Thomas Weller</dc:title>
          </cc:Agent>
        </dc:rights>
        <dc:date />
        <dc:format>image/svg+xml</dc:format>
        <dc:type
           rdf:resource="http://purl.org/dc/dcmitype/StillImage" />
        <cc:license
           rdf:resource="http://web.resource.org/cc/PublicDomain" />
        <dc:language>en</dc:language>
      </cc:Work>
      <cc:License
         rdf:about="http://web.resource.org/cc/PublicDomain">
        <cc:permits
           rdf:resource="http://web.resource.org/cc/Reproduction" />
        <cc:permits
           rdf:resource="http://web.resource.org/cc/Distribution" />
        <cc:permits
           rdf:resource="http://web.resource.org/cc/DerivativeWorks" />
      </cc:License>
    </rdf:RDF>
  </metadata>
  <defs
     id="defs1610">
    <marker
       viewBox="0 0 10 10"
       refY="5"
       refX="0"
       orient="auto"
       markerWidth="4"
       markerUnits="strokeWidth"
       markerHeight="3"
       id="ArrowEnd">
      <path
         id="path1612"
         d="M 0 0 L 10 5 L 0 10 z" />
    </marker>
    <marker
       viewBox="0 0 10 10"
       refY="5"
       refX="10"
       orient="auto"
       markerWidth="4"
       markerUnits="strokeWidth"
       markerHeight="3"
       id="ArrowStart">
      <path
         id="path1614"
         d="M 10 0 L 0 5 L 10 10 z" />
    </marker>
  </defs>
  <path
     inkscape:connector-curvature="0"
     style="color:#000000;opacity:1;solid-color:#000000;fill:#000000;fill-opacity:1;stroke:none;stroke-width:0.99073488"
     d="m 78.460357,9.5966327 c -0.135393,0.00168 -0.270262,0.017251 -0.402486,0.046441 -3.165338,0.029179 -6.118808,1.6787893 -7.713019,4.4408913 L 39.384387,67.709424 8.4239224,121.33489 h 0.00198 c -3.3881943,5.8673 1.0074982,13.48299 7.7826886,13.48328 h 61.920929 61.92287 c 6.77519,-3.2e-4 11.17283,-7.61599 7.78462,-13.48328 L 116.87654,67.709424 85.914141,14.083965 C 84.462536,11.568851 81.872765,9.9591256 79.000288,9.6759688 78.856622,9.6335773 78.708616,9.6076101 78.559094,9.5985677 h -0.004 c -0.03091,-0.00137 -0.06192,-0.00201 -0.09283,-0.00193 z"
     id="path4595" />
  <path
     inkscape:connector-curvature="0"
     id="path4577"
     d="M 78.368051,13.557637 C 76.48936,13.468857 74.718332,14.4365 73.778154,16.065434 L 42.81769,69.690894 11.857225,123.31636 c -1.9347369,3.35035 0.483033,7.5387 4.351882,7.53887 h 61.920929 61.922874 c 3.86884,-1.8e-4 6.2866,-4.18853 4.35187,-7.53887 L 113.44432,69.690894 82.481919,16.065434 c -0.855114,-1.481605 -2.405138,-2.426498 -4.113868,-2.507797 z"
     style="color:#000000;opacity:1;solid-color:#000000;fill:#000000;fill-opacity:1;stroke:none;stroke-width:0.99073488" />
  <path
     inkscape:connector-curvature="0"
     d="M 140.053,125.82964 H 78.130997 16.208998 L 47.169998,72.20361 78.130997,18.577586 109.092,72.203609 Z"
     id="path4573"
     style="opacity:1;fill:#ffe500;fill-opacity:1;stroke:none;stroke-width:0.99073488" />
  <ellipse
     cy="105.89166"
     cx="78.131493"
     id="path846"
     style="opacity:0.95999995;fill:#000000;fill-opacity:1;stroke:none;stroke-width:0.94062924"
     rx="9.3475161"
     ry="7.358964" />
  <path
     id="circle848"
     d="m 78.131587,49.00367 c -5.16252,-4.61e-4 -9.348037,3.247413 -9.348589,7.254309 3.346029,30.823583 0,0 3.346029,30.823583 9.47e-4,2.57247 2.688164,4.657438 6.00256,4.657284 3.314395,1.54e-4 6.001613,-2.084814 6.002559,-4.657284 3.343959,-30.823583 0,0 3.343959,-30.823583 -5.52e-4,-4.006268 -4.184808,-7.253881 -9.346518,-7.254309 z"
     style="opacity:0.95999995;fill:#000000;fill-opacity:1;stroke:none;stroke-width:0.93396664"
     inkscape:connector-curvature="0" />
</svg>
