<svg id="Capa_1" enable-background="new 0 0 512 512" height="512" viewBox="0 0 512 512" width="512" xmlns="http://www.w3.org/2000/svg"><g><g><path d="m497 220h-160c-8.284 0-15-6.716-15-15v-10c0-52.383 42.617-95 95-95s95 42.617 95 95v10c0 8.284-6.716 15-15 15z" fill="#45f6ff"/><path d="m497 220c8.284 0 15-6.716 15-15v-10c0-52.383-42.617-95-95-95v120z" fill="#2ebeef"/><path d="m417 120c-33.084 0-60-26.916-60-60s26.916-60 60-60 60 26.916 60 60-26.916 60-60 60z" fill="#ffdcaa"/><path d="m417 0v120c33.084 0 60-26.916 60-60s-26.916-60-60-60z" fill="#ffc687"/></g><path d="m236.004 220.009c-1.497 0-3.018-.226-4.521-.7-7.899-2.495-12.281-10.921-9.787-18.821l60-190c2.495-7.899 10.916-12.284 18.82-9.787 7.9 2.495 12.282 10.921 9.787 18.821l-60 190c-2.019 6.397-7.929 10.487-14.299 10.487z" fill="#524798"/><g><g><path d="m120.114 512c-4.97 0-9.889-.648-14.712-1.97-45.936-12.588-66.626-80.823-47.102-155.342 12.277-46.859 37.726-85.296 68.075-102.816 16.377-9.454 33.348-12.173 49.072-7.865 12.574 3.446 23.443 11.057 32.306 22.621 2.586 3.375 6.872 5.39 11.462 5.39h73.567c4.591 0 8.876-2.015 11.462-5.39 8.863-11.564 19.732-19.174 32.306-22.62 15.727-4.309 32.695-1.59 49.073 7.864 30.35 17.52 55.798 55.957 68.075 102.816 19.524 74.52-1.165 142.754-47.102 155.343-28.363 7.773-60.143-7.744-85.007-41.508-3.042-4.132-7.53-6.502-12.311-6.502h-106.557c-4.781 0-9.269 2.37-12.312 6.502-20.636 28.022-46.038 43.476-70.295 43.477z" fill="#524798"/><g><path d="m453.7 354.688c-12.277-46.859-37.726-85.296-68.075-102.816-16.377-9.454-33.346-12.173-49.073-7.864-12.574 3.446-23.443 11.056-32.306 22.62-2.586 3.375-6.872 5.39-11.462 5.39h-36.784v190.002h53.279c4.781 0 9.269 2.37 12.311 6.502 24.864 33.764 56.644 49.281 85.007 41.508 45.937-12.588 66.627-80.823 47.103-155.342z" fill="#38336b"/></g><path d="m361 412.021c-24.813 0-45-20.187-45-45s20.187-45 45-45 45 20.187 45 45-20.187 45-45 45z" fill="#2ebeef"/><path d="m181 352.021h-15v-15c0-8.284-6.716-15-15-15s-15 6.716-15 15v15h-15c-8.284 0-15 6.716-15 15s6.716 15 15 15h15v15c0 8.284 6.716 15 15 15s15-6.716 15-15v-15h15c8.284 0 15-6.716 15-15 0-8.285-6.716-15-15-15z" fill="#f9f9f9"/><path d="m256 402.021c-8.284 0-15-6.716-15-15v-40c0-8.284 6.716-15 15-15s15 6.716 15 15v40c0 8.284-6.716 15-15 15z" fill="#38336b"/></g><g><g><path d="m256 332.021v70c8.284 0 15-6.716 15-15v-40c0-8.285-6.716-15-15-15z" fill="#2e2654"/></g></g></g><g><path d="m175 220h-160c-8.284 0-15-6.716-15-15v-10c0-52.383 42.617-95 95-95s95 42.617 95 95v10c0 8.284-6.716 15-15 15z" fill="#ff6378"/><path d="m175 220c8.284 0 15-6.716 15-15v-10c0-52.383-42.617-95-95-95v120z" fill="#d0004f"/><path d="m95 120c-33.084 0-60-26.916-60-60s26.916-60 60-60 60 26.916 60 60-26.916 60-60 60z" fill="#ffdcaa"/><path d="m95 0v120c33.084 0 60-26.916 60-60s-26.916-60-60-60z" fill="#ffc687"/></g><path d="m300.517.701c-7.904-2.497-16.325 1.888-18.82 9.787l-25.697 81.372v99.624l54.304-171.962c2.495-7.9-1.887-16.326-9.787-18.821z" fill="#38336b"/></g></svg>