<svg id="Capa_1" enable-background="new 0 0 512 512" height="512" viewBox="0 0 512 512" width="512" xmlns="http://www.w3.org/2000/svg"><g><g><g><path d="m341 220h-170v-35c0-46.944 38.056-85 85-85 46.944 0 85 38.056 85 85z" fill="#45f6ff"/><path d="m256 100v120h85v-35c0-46.944-38.056-85-85-85z" fill="#2ebeef"/><path d="m496 220h-155v-35c0-46.944 38.056-85 85-85 46.944 0 85 38.056 85 85v20c0 8.284-6.716 15-15 15z" fill="#ffe196"/><path d="m171 220h-155c-8.284 0-15-6.716-15-15v-20c0-46.944 38.056-85 85-85 46.944 0 85 38.056 85 85z" fill="#f9f9f9"/><path d="m426 100v120h70c8.284 0 15-6.716 15-15v-20c0-46.944-38.056-85-85-85z" fill="#ffb454"/></g><path d="m171 220h-155c-8.284 0-15-6.716-15-15v-20c0-46.944 38.056-85 85-85 46.944 0 85 38.056 85 85z" fill="#00ec89"/><path d="m86 100v120h85v-35c0-46.944-38.056-85-85-85z" fill="#00a763"/><path d="m86 115c-31.706 0-57.5-25.794-57.5-57.5s25.794-57.5 57.5-57.5 57.5 25.794 57.5 57.5-25.794 57.5-57.5 57.5z" fill="#ffdcaa"/><path d="m86 0v115c31.706 0 57.5-25.794 57.5-57.5s-25.794-57.5-57.5-57.5z" fill="#ffc687"/><g><path d="m256 115c-31.706 0-57.5-25.794-57.5-57.5s25.794-57.5 57.5-57.5 57.5 25.794 57.5 57.5-25.794 57.5-57.5 57.5z" fill="#ffdcaa"/><path d="m256 0v115c31.706 0 57.5-25.794 57.5-57.5s-25.794-57.5-57.5-57.5z" fill="#ffc687"/></g><g><path d="m426 115c-31.706 0-57.5-25.794-57.5-57.5s25.794-57.5 57.5-57.5 57.5 25.794 57.5 57.5-25.794 57.5-57.5 57.5z" fill="#ffdcaa"/><path d="m426 0v115c31.706 0 57.5-25.794 57.5-57.5s-25.794-57.5-57.5-57.5z" fill="#ffc687"/></g></g><g><g><path d="m120.114 512c-4.97 0-9.889-.648-14.712-1.97-45.936-12.589-66.626-80.823-47.102-155.342 12.277-46.859 37.726-85.296 68.075-102.816 16.377-9.454 33.348-12.173 49.072-7.865 12.574 3.446 23.443 11.057 32.306 22.621 2.586 3.375 6.872 5.39 11.462 5.39h73.567c4.591 0 8.876-2.015 11.462-5.39 8.863-11.564 19.732-19.174 32.306-22.62 15.727-4.309 32.695-1.59 49.073 7.864 30.35 17.521 55.798 55.957 68.075 102.816 19.524 74.52-1.165 142.754-47.102 155.343-28.363 7.773-60.143-7.744-85.007-41.508-3.043-4.132-7.53-6.502-12.311-6.502h-106.557c-4.781 0-9.269 2.37-12.312 6.502-20.636 28.022-46.038 43.476-70.295 43.477z" fill="#524798"/><g><path d="m453.7 354.688c-12.277-46.859-37.726-85.296-68.075-102.816-16.377-9.454-33.346-12.173-49.073-7.864-12.574 3.446-23.443 11.056-32.306 22.62-2.586 3.375-6.872 5.39-11.462 5.39h-36.784v190.002h53.279c4.781 0 9.269 2.37 12.311 6.502 24.864 33.764 56.644 49.281 85.007 41.508 45.937-12.589 66.627-80.823 47.103-155.342z" fill="#38336b"/></g><path d="m361 412.021c-24.813 0-45-20.187-45-45s20.187-45 45-45 45 20.187 45 45c0 24.812-20.187 45-45 45z" fill="#2ebeef"/><path d="m181 352.021h-15v-15c0-8.284-6.716-15-15-15s-15 6.716-15 15v15h-15c-8.284 0-15 6.716-15 15s6.716 15 15 15h15v15c0 8.284 6.716 15 15 15s15-6.716 15-15v-15h15c8.284 0 15-6.716 15-15 0-8.285-6.716-15-15-15z" fill="#f9f9f9"/><path d="m256 402.021c-8.284 0-15-6.716-15-15v-40c0-8.284 6.716-15 15-15s15 6.716 15 15v40c0 8.284-6.716 15-15 15z" fill="#38336b"/></g><g><g><path d="m256 332.021v70c8.284 0 15-6.716 15-15v-40c0-8.285-6.716-15-15-15z" fill="#2e2654"/></g></g></g></g></svg>